# xmcd
#
# Track frame offsets:
#	300
#	15422
#	28208
#	37511
#	49613
#	60018
#	69415
#	79529
#	104993
#	121917
#	138813
#	153507
#	186462
#	212620
#	220140
#	257167
#	306535
#	319774
#	335081
#
# Disc length: 4667 seconds
#
# Revision: 1
# Processed by: cddbd v1.5.2PL0 Copyright (c) Steve Scherf et al.
# Submitted via: audiograbber 1.83.01
#
DISCID=0b123713
DTITLE=canned heat - on the road again
DYEAR=2009
DGENRE=
TTITLE0=on the road again
TTITLE1=same all over
TTITLE2=rolling and tumbling
TTITLE3=got my mojo working
TTITLE4=spoonful
TTITLE5=big road blues
TTITLE6=got my eyes on you
TTITLE7=amphetamine annie
TTITLE8=lets work together
TTITLE9=hell's just on down the road
TTITLE10=so long
TTITLE11=bullfrog blues
TTITLE12=dust my broom
TTITLE13=pretty thing
TTITLE14=wish you would
TTITLE15=sweet sixten
TTITLE16=up the country
TTITLE17=of the boogie
TTITLE18=chicken shack boogie
EXTD=
EXTT0=
EXTT1=
EXTT2=
EXTT3=
EXTT4=
EXTT5=
EXTT6=
EXTT7=
EXTT8=
EXTT9=
EXTT10=
EXTT11=
EXTT12=
EXTT13=
EXTT14=
EXTT15=
EXTT16=
EXTT17=
EXTT18=
PLAYORDER=
